<svg width="168" height="45" viewBox="0 0 168 45" fill="none" xmlns="http://www.w3.org/2000/svg">
<path d="M9.67889 37.3287C20.2192 37.3287 34.7999 43.2635 45.3794 43.2635C52.9289 43.2635 60.2958 41.2487 64.4889 38.282C64.7817 36.5397 64.9369 34.751 64.9369 32.9255C64.9369 15.2105 50.5755 0.849609 32.8605 0.849609C15.1455 0.849609 0.784363 15.2105 0.784363 32.9255C0.784363 34.73 0.935741 36.4985 1.22223 38.2216C2.37831 38.0075 6.30919 37.3287 9.67889 37.3287Z" fill="white"/>
<path d="M81.7877 43.6133H155.983V44.5128H81.7877V43.6133Z" fill="#E3A82B"/>
<path d="M85.5411 18.8965C85.5411 19.6293 85.5861 20.667 86.0155 21.115C86.4449 21.5831 87.1228 21.6847 87.8004 21.6847C89.8108 21.6847 91.347 20.871 91.347 18.8356C91.347 17.2278 90.4434 15.3551 86.8516 15.3551C85.6316 15.3551 85.5411 15.4772 85.5411 15.8842V18.8965ZM85.5411 14.1745C85.5411 14.7449 85.5637 14.7852 86.7158 14.7449C89.0199 14.6631 90.2628 14.0524 90.2628 12.1394C90.2628 10.1448 88.6132 9.3917 86.8969 9.3917C86.3996 9.3917 86.0605 9.43249 85.8575 9.51384C85.6316 9.57491 85.5411 9.67701 85.5411 10.0427V14.1745ZM83.6887 11.4678C83.6887 9.96184 83.5823 9.56288 82.5658 9.48106L81.8587 9.43249C81.7436 9.341 81.7762 8.93308 81.8813 8.92365C83.1006 8.81495 84.6375 8.76096 86.7384 8.76096C88.1617 8.76096 89.5172 8.86258 90.5342 9.33063C91.5054 9.75812 92.251 10.5721 92.251 11.8746C92.251 13.3403 91.3019 14.0934 89.9466 14.6631C89.9466 14.8665 90.1274 14.9278 90.3757 14.9682C91.5957 15.1721 93.4028 16.1896 93.4028 18.3673C93.4028 20.7283 91.4604 22.3159 87.3934 22.3159C86.7384 22.3159 85.6316 22.2546 84.6825 22.2546C83.6887 22.2546 82.9207 22.2959 82.0846 22.3159C81.949 22.2546 81.9037 21.9292 82.0393 21.8068L82.4463 21.7458C83.6432 21.5625 83.6887 21.3388 83.6887 19.2018V11.4678Z" fill="white"/>
<path d="M109.105 13.471C109.105 11.6283 109.066 11.3328 107.928 11.246L107.445 11.2111C107.329 11.1416 107.368 10.8284 107.484 10.7763C108.448 10.811 109.105 10.8284 109.915 10.8284C110.687 10.8284 111.343 10.811 112.308 10.7763C112.424 10.8284 112.462 11.1416 112.346 11.2111L111.864 11.246C110.725 11.3328 110.687 11.6283 110.687 13.471V19.6602C110.687 21.5027 110.725 21.7463 111.864 21.8682L112.346 21.9201C112.462 21.9896 112.424 22.3023 112.308 22.3546C111.343 22.3197 110.687 22.3023 109.915 22.3023C109.105 22.3023 108.448 22.3197 107.484 22.3546C107.368 22.3023 107.329 22.0243 107.445 21.9201L107.928 21.8682C109.066 21.7463 109.105 21.5027 109.105 19.6602V13.471Z" fill="white"/>
<path d="M119.811 19.6964C119.811 21.5216 119.846 21.7824 120.896 21.8694L121.474 21.9215C121.582 21.9908 121.546 22.3035 121.438 22.3561C120.407 22.3212 119.793 22.3035 119.069 22.3035C118.346 22.3035 117.713 22.3212 116.556 22.3561C116.448 22.3035 116.411 22.0085 116.556 21.9215L117.207 21.8694C118.238 21.7824 118.328 21.5216 118.328 19.6964V11.9249C118.328 11.3861 118.328 11.3691 117.786 11.3691H116.791C116.014 11.3691 115.02 11.4038 114.567 11.8035C114.134 12.1859 113.953 12.5686 113.754 13.0029C113.609 13.1074 113.356 13.0204 113.284 12.8813C113.573 12.0992 113.844 10.9865 113.97 10.2911C114.025 10.2564 114.26 10.239 114.314 10.2911C114.423 10.8471 115.02 10.8299 115.851 10.8299H123.173C124.15 10.8299 124.312 10.7952 124.583 10.3432C124.674 10.3086 124.873 10.326 124.909 10.3951C124.71 11.1084 124.583 12.5163 124.638 13.0378C124.566 13.177 124.258 13.177 124.168 13.0727C124.114 12.6377 123.987 11.9947 123.716 11.8035C123.3 11.5076 122.613 11.3691 121.619 11.3691H120.335C119.793 11.3691 119.811 11.3861 119.811 11.9598V19.6964Z" fill="white"/>
<path d="M127.559 13.471C127.559 11.6283 127.52 11.3328 126.382 11.246L125.899 11.2111C125.784 11.1416 125.822 10.8284 125.938 10.7763C126.903 10.811 127.559 10.8284 128.37 10.8284C129.141 10.8284 129.797 10.811 130.762 10.7763C130.878 10.8284 130.917 11.1416 130.801 11.2111L130.318 11.246C129.18 11.3328 129.141 11.6283 129.141 13.471V19.6602C129.141 21.5027 129.18 21.7463 130.318 21.8682L130.801 21.9201C130.917 21.9896 130.878 22.3023 130.762 22.3546C129.797 22.3197 129.141 22.3023 128.37 22.3023C127.559 22.3023 126.903 22.3197 125.938 22.3546C125.822 22.3023 125.784 22.0243 125.899 21.9201L126.382 21.8682C127.52 21.7463 127.559 21.5027 127.559 19.6602V13.471Z" fill="white"/>
<path d="M136.208 22.5321C134.484 22.5321 133.397 22.08 133.008 21.8891C132.761 21.5064 132.494 20.2722 132.453 19.455C132.556 19.3333 132.864 19.2987 132.946 19.4029C133.254 20.2894 134.095 21.9928 136.474 21.9928C138.198 21.9928 139.039 21.0369 139.039 19.9938C139.039 19.2291 138.854 18.3772 137.356 17.5599L135.408 16.4819C134.382 15.9084 133.192 14.9174 133.192 13.492C133.192 11.8403 134.71 10.5017 137.377 10.5017C138.012 10.5017 138.751 10.606 139.285 10.7276C139.551 10.7972 139.838 10.8318 140.003 10.8318C140.187 11.2497 140.372 12.223 140.372 12.953C140.29 13.0575 139.961 13.1094 139.859 13.0051C139.592 12.1709 139.039 11.0408 137.069 11.0408C135.059 11.0408 134.628 12.1709 134.628 12.9702C134.628 13.9787 135.613 14.7092 136.372 15.1089L138.012 15.978C139.305 16.6559 140.577 17.6641 140.577 19.3159C140.577 21.2281 138.875 22.5321 136.208 22.5321Z" fill="white"/>
<path d="M146.533 16.6872C145.635 16.6872 145.598 16.7218 145.598 17.2434V19.6949C145.598 21.5202 145.692 21.7637 146.739 21.8682L147.281 21.9201C147.394 21.9896 147.356 22.3021 147.244 22.3546C146.234 22.3197 145.598 22.3021 144.868 22.3021C144.064 22.3021 143.428 22.337 142.698 22.3546C142.586 22.3021 142.549 22.0243 142.661 21.9201L142.979 21.8682C144.027 21.6942 144.064 21.5202 144.064 19.6949V13.4363C144.064 11.6108 143.933 11.3156 142.96 11.246L142.474 11.2111C142.362 11.1416 142.399 10.8284 142.511 10.7763C143.428 10.7938 144.064 10.8284 144.868 10.8284C145.598 10.8284 146.234 10.811 147.038 10.7763C147.151 10.8284 147.188 11.1416 147.076 11.2111L146.72 11.246C145.635 11.3503 145.598 11.6108 145.598 13.4363V15.4353C145.598 15.9741 145.635 15.9918 146.533 15.9918H151.883C152.782 15.9918 152.819 15.9741 152.819 15.4353V13.4363C152.819 11.6108 152.782 11.3503 151.678 11.246L151.322 11.2111C151.21 11.1416 151.247 10.8284 151.36 10.7763C152.221 10.811 152.856 10.8284 153.623 10.8284C154.353 10.8284 154.989 10.811 155.831 10.7763C155.943 10.8284 155.98 11.1416 155.868 11.2111L155.476 11.246C154.391 11.3503 154.353 11.6108 154.353 13.4363V19.6949C154.353 21.5202 154.391 21.7463 155.476 21.8682L155.925 21.9201C156.037 21.9896 155.999 22.3021 155.887 22.3546C154.989 22.3197 154.353 22.3021 153.623 22.3021C152.856 22.3021 152.183 22.3197 151.36 22.3546C151.247 22.3021 151.21 22.0243 151.322 21.9201L151.678 21.8682C152.819 21.6942 152.819 21.5202 152.819 19.6949V17.2434C152.819 16.7218 152.782 16.6872 151.883 16.6872H146.533Z" fill="white"/>
<path d="M72.9825 26.1757C74.5201 24.9795 76.4791 24.3919 78.6698 24.3919C79.807 24.3919 81.4076 24.6225 82.3979 24.8956C82.6507 24.9585 82.7981 25.0007 82.9876 24.9795C83.0086 25.4624 83.114 26.7842 83.2824 28.0648C83.1772 28.2117 82.8613 28.233 82.7139 28.107C82.3979 26.6798 81.45 25.0422 78.3958 25.0422C75.173 25.0422 72.4348 27.0785 72.4348 31.4232C72.4348 35.8309 75.2362 38.2659 78.6906 38.2659C81.4076 38.2659 82.6085 36.5026 83.0928 35.264C83.2404 35.1596 83.5566 35.2011 83.6405 35.3482C83.4934 36.4397 82.9454 37.8247 82.6295 38.2239C82.3767 38.2659 82.1242 38.3498 81.8924 38.4333C81.4288 38.6019 79.9124 38.9164 78.5642 38.9164C76.6687 38.9164 74.8573 38.5389 73.3195 37.5099C71.6343 36.3555 70.3285 34.4461 70.3285 31.7385C70.3285 29.4081 71.3817 27.4143 72.9825 26.1757Z" fill="white"/>
<path d="M95.5106 33.3289C95.5106 30.4603 94.1783 27.3657 90.6917 27.3657C88.7933 27.3657 86.3293 28.6001 86.3293 32.4077C86.3293 34.9804 87.6434 38.3185 91.2392 38.3185C93.4299 38.3185 95.5106 36.7538 95.5106 33.3289ZM84.5036 32.9637C84.5036 29.4867 87.2418 26.827 91.0022 26.827C95.2186 26.827 97.3361 29.73 97.3361 32.7899C97.3361 36.3018 94.5249 38.8573 91.0022 38.8573C86.9499 38.8573 84.5036 36.0929 84.5036 32.9637Z" fill="white"/>
<path d="M117.93 31.4711C117.93 30.3933 117.893 28.3935 117.58 27.8724C117.451 27.6637 117.119 27.5418 116.658 27.5069L116.198 27.4723C116.088 27.3506 116.124 27.1247 116.235 27.0549C116.935 27.0896 117.617 27.1073 118.335 27.1073C119.11 27.1073 119.607 27.0896 120.271 27.0554C120.418 27.1424 120.4 27.3681 120.307 27.4723L119.865 27.5069C119.404 27.5418 119.054 27.6984 118.944 27.9245C118.686 28.498 118.686 30.4975 118.686 31.4711V33.4355C118.686 34.9483 118.427 36.5474 117.396 37.5903C116.603 38.4076 115.24 38.8596 113.876 38.8596C112.605 38.8596 111.333 38.6335 110.43 37.9035C109.453 37.1388 108.993 35.8695 108.993 33.8009V29.6977C108.993 27.8899 108.956 27.5942 107.887 27.5069L107.426 27.4723C107.316 27.4027 107.352 27.1075 107.463 27.0549C108.385 27.0896 109.011 27.1073 109.748 27.1073C110.504 27.1073 111.112 27.0896 112.015 27.0554C112.125 27.1075 112.162 27.4027 112.052 27.4723L111.609 27.5069C110.54 27.5942 110.504 27.8899 110.504 29.6977V33.4529C110.504 36.2517 111.425 38.0949 114.244 38.0949C116.916 38.0949 117.93 36.1126 117.93 33.4706V31.4711Z" fill="white"/>
<path d="M141.018 35.706C141.018 36.3381 141.058 37.2334 141.445 37.6199C141.832 38.0238 142.443 38.1115 143.054 38.1115C144.867 38.1115 146.252 37.4091 146.252 35.6532C146.252 34.266 145.437 32.6511 142.199 32.6511C141.099 32.6511 141.018 32.7558 141.018 33.1073V35.706ZM141.018 31.632C141.018 32.1241 141.038 32.159 142.076 32.1241C144.154 32.0538 145.274 31.5271 145.274 29.8763C145.274 28.1555 143.788 27.5056 142.24 27.5056C141.791 27.5056 141.486 27.5408 141.303 27.6113C141.099 27.6639 141.018 27.7516 141.018 28.0675V31.632ZM139.347 29.2969C139.347 27.9975 139.266 27.6639 138.349 27.5938L137.697 27.5304C137.623 27.4634 137.584 27.1116 137.718 27.1017C138.818 27.0194 140.203 26.9617 142.097 26.9617C143.38 26.9617 144.602 27.0494 145.519 27.4528C146.395 27.8218 147.067 28.5243 147.067 29.6483C147.067 30.9121 146.211 31.5622 144.989 32.0538C144.989 32.2295 145.152 32.2821 145.376 32.3172C146.476 32.4926 148.106 33.371 148.106 35.2493C148.106 37.286 146.354 38.6557 142.688 38.6557C142.097 38.6557 141.099 38.6032 140.244 38.6032C139.347 38.6032 138.655 38.6381 137.901 38.6557C137.779 38.6032 137.738 38.3223 137.86 38.2172L138.227 38.1644C139.307 38.0064 139.347 37.813 139.347 35.9696V29.2969Z" fill="white"/>
<path d="M99.1234 16.2084C98.773 16.2084 98.0725 16.3388 98.0725 15.8736V12.5388C98.0725 11.2351 98.114 11.0486 99.6797 11.0486C101.513 11.0486 102.646 11.9797 102.646 13.6935C102.646 14.4388 102.379 15.128 101.699 15.5937C100.916 16.1342 100.071 16.2084 99.1234 16.2084ZM106.157 21.9212L105.674 21.8795C105.576 21.8691 105.49 21.8568 105.407 21.8431C104.701 21.7182 104.419 21.0896 104.086 20.5062L102.418 17.6001C102.129 17.1158 101.82 16.4638 101.161 16.3709C102.871 16.1658 104.416 15.1787 104.416 13.4836C104.416 11.5273 102.479 10.652 100.522 10.652C99.3477 10.652 98.2774 10.6838 97.0824 10.6838C96.4234 10.6838 95.6391 10.652 94.9801 10.652C94.6139 10.652 94.6092 10.7265 94.6092 10.9314C94.6092 11.2337 94.7368 11.1491 95.1246 11.171C96.5168 11.2493 96.4635 11.5089 96.4635 12.701V20.3202C96.4635 21.4105 96.5578 21.7361 95.413 21.8387C95.413 21.8387 95.2376 21.8568 95.1381 21.8674L94.6531 21.9172C94.5371 22.0212 94.5762 22.2994 94.6917 22.3515C94.9497 22.3421 95.4069 22.3242 95.4069 22.3242C96.0407 22.3053 96.6743 22.257 97.3081 22.257C97.9454 22.257 98.5552 22.306 99.1819 22.3244V22.3249C99.4043 22.3319 99.6393 22.3397 99.8966 22.3489C100.013 22.2968 100.052 22.0188 99.9353 21.9146L99.4472 21.8684C99.3477 21.8578 99.1765 21.8424 99.1765 21.8424C98.0204 21.7642 98.0914 21.4381 98.0914 20.3202V17.4513C98.0914 17.2836 98.0702 16.8368 98.1942 16.7062C98.2972 16.594 98.4823 16.6128 98.6471 16.6128C100.214 16.6128 100.192 16.7621 100.934 18.066L102.953 21.6984C103.118 21.978 103.242 22.3317 103.654 22.3317H105.408C105.629 22.3388 105.861 22.3461 106.118 22.3555C106.233 22.3034 106.272 22.0252 106.157 21.9212Z" fill="white"/>
<path d="M99.5001 29.7566C99.5001 27.9313 99.4619 27.6526 98.2575 27.5658L97.7791 27.5312C97.6645 27.4616 97.7027 27.149 97.8173 27.0964C98.8885 27.1313 99.5383 27.1485 100.303 27.1485C101.049 27.1485 101.699 27.1313 102.656 27.0971C102.77 27.149 102.808 27.4616 102.694 27.5312L102.235 27.5658C101.107 27.6526 101.068 27.9313 101.068 29.7566V35.8067C101.068 36.902 101.126 37.354 101.47 37.6841C101.68 37.8751 102.044 38.084 103.554 38.084C105.18 38.084 105.581 38.0142 105.888 37.8581C106.27 37.6492 106.767 37.0237 107.149 36.1369C107.265 36.0503 107.628 36.1192 107.628 36.2411C107.628 36.4325 107.092 38.2059 106.824 38.6749C105.849 38.6403 104.032 38.6228 102.062 38.6228H100.303C99.5001 38.6228 98.8885 38.6403 97.8173 38.6749C97.7027 38.6228 97.6645 38.3446 97.7791 38.2404L98.353 38.1885C99.4619 38.084 99.5001 37.8405 99.5001 36.0154V29.7566Z" fill="white"/>
<path d="M150.731 29.7912C150.731 27.9488 150.693 27.6528 149.586 27.5658L149.116 27.5314C149.004 27.4616 149.041 27.1492 149.154 27.0964C150.092 27.1315 150.731 27.1487 151.519 27.1487C152.27 27.1487 152.909 27.1315 153.848 27.0971C153.96 27.1492 153.998 27.4616 153.885 27.5314L153.415 27.5658C152.308 27.6528 152.27 27.9488 152.27 29.7912V35.9808C152.27 37.8235 152.308 38.0668 153.415 38.1885L153.885 38.2406C153.998 38.3101 153.96 38.6228 153.848 38.6751C152.909 38.6403 152.27 38.6228 151.519 38.6228C150.731 38.6228 150.092 38.6403 149.154 38.6751C149.041 38.6228 149.004 38.3446 149.116 38.2406L149.586 38.1885C150.693 38.0668 150.731 37.8235 150.731 35.9808V29.7912Z" fill="white"/>
<path d="M135.728 38.1849C135.631 38.1746 135.451 38.1604 135.451 38.1604C135.254 38.1406 135.076 38.1121 134.936 37.9588C134.692 37.6999 134.712 36.9624 134.712 36.6671V29.0494C134.712 28.7172 134.631 27.998 134.875 27.7394C134.997 27.6033 135.25 27.5805 135.476 27.5677V27.5668C135.613 27.5564 135.616 27.5559 135.736 27.55L136.219 27.5156C136.335 27.4458 136.296 27.1332 136.18 27.0808C135.922 27.0898 135.688 27.0865 135.465 27.0933V27.0943H133.414C133.191 27.0943 132.988 27.0943 132.866 27.3341L128.686 36.0402L124.994 27.6293C124.872 27.3341 124.852 27.0943 124.466 27.0943H122.331C122.109 27.0874 121.863 27.0898 121.605 27.0808C121.49 27.1332 121.451 27.4458 121.567 27.5156L122.049 27.55C122.149 27.5581 122.329 27.5703 122.329 27.5703C123.13 27.6217 123.18 27.8007 123.107 28.6436L122.478 36.8145C122.423 37.6351 122.378 38.0687 121.518 38.1486C121.518 38.1486 121.337 38.1713 121.237 38.1819L120.755 38.2342C120.639 38.338 120.678 38.6162 120.794 38.6683C121.048 38.6589 121.5 38.6457 121.5 38.6457C121.936 38.6242 122.379 38.5855 122.823 38.5855C123.302 38.5855 123.781 38.6308 124.26 38.6499V38.6509C124.483 38.6577 124.717 38.6655 124.975 38.6744C125.091 38.6223 125.13 38.3443 125.014 38.2401L124.532 38.188C124.405 38.1781 124.262 38.164 124.262 38.164C123.022 38.0791 123.05 37.2036 123.127 36.1326L123.716 28.5333H123.858L127.855 37.8848C127.895 38.0138 127.956 38.2352 128.159 38.2352C128.342 38.2352 128.403 38.0326 128.463 37.9029L132.967 28.3112H133.109V36.6671C133.109 36.9991 133.15 37.6818 132.805 37.9397C132.625 38.0739 132.039 38.1545 132.039 38.1545C131.958 38.1673 131.873 38.179 131.777 38.1892L131.295 38.2411C131.179 38.3453 131.218 38.6233 131.334 38.6756C131.588 38.6664 132.039 38.6523 132.039 38.6523C132.693 38.6341 133.357 38.5855 134.022 38.5855C134.5 38.5855 135.437 38.6311 135.437 38.6311C135.66 38.6379 135.914 38.6622 136.172 38.6714C136.288 38.6193 136.326 38.3413 136.21 38.2373L135.728 38.1849Z" fill="white"/>
<path d="M162.012 33.9263H159.754C159.676 33.9263 159.048 34.0001 159.048 33.816C159.048 33.7605 159.087 33.65 159.106 33.595L160.461 30.2402C160.5 30.148 160.638 29.687 160.795 29.687C160.913 29.687 161.07 30.1664 161.109 30.2402L162.444 33.3734C162.444 33.4104 162.581 33.7054 162.581 33.7792C162.581 33.9819 162.13 33.9263 162.012 33.9263ZM167.08 38.2295L167.015 38.1774C166.919 38.1672 166.833 38.1557 166.752 38.1423C166.001 37.9744 165.708 37.0689 165.43 36.4238L161.561 27.2671C161.522 27.1572 161.446 26.9202 161.293 26.9202C161.082 26.9202 161.025 27.1756 160.967 27.3211L157.271 36.4604C157.136 36.807 156.792 37.6466 156.543 37.9013C156.352 38.0967 156.103 38.1342 155.838 38.1616C155.838 38.1616 155.63 38.1814 155.53 38.1922L155.076 38.2385C154.96 38.3424 154.999 38.6207 155.115 38.673C155.372 38.6638 155.83 38.6471 155.83 38.6471C156.335 38.6402 156.841 38.5763 157.347 38.5763C157.773 38.5763 158.199 38.6216 158.624 38.6405C158.624 38.6405 159.081 38.6568 159.339 38.6667C159.455 38.6141 159.493 38.3358 159.378 38.2319L158.895 38.1795C158.799 38.1696 158.633 38.154 158.633 38.154C158.189 38.1048 157.635 38.0253 157.635 37.5363C157.635 37.208 157.788 36.8249 157.903 36.533L158.477 35.1654C158.765 34.5089 158.65 34.4354 159.415 34.4354H162.021C162.94 34.4354 162.805 34.4354 163.208 35.3663L163.821 36.7518C163.917 36.9895 164.089 37.3906 164.089 37.6466C164.089 38.1048 163.588 38.1349 163.121 38.1746C163.121 38.1746 162.966 38.1875 162.831 38.1979L162.367 38.2316C162.251 38.3356 162.29 38.6138 162.406 38.6662C162.664 38.6568 163.121 38.6381 163.121 38.6381C163.666 38.6183 164.214 38.5763 164.74 38.5763C165.411 38.5763 166.082 38.6219 166.752 38.641V38.6402C166.973 38.6471 166.787 38.6549 167.041 38.6641C167.157 38.6117 167.196 38.3335 167.08 38.2295Z" fill="white"/>
<path d="M53.6069 25.5067L54.8752 26.0325L57.688 24.0707L53.6069 25.5067Z" fill="#E3A82B"/>
<path d="M6.34557 23.3141L3.01172 22.1411L3.17889 21.7327L6.9334 22.9845L6.94967 22.9753L7.44507 22.6945L7.64266 22.5707L3.54861 20.8291L3.72168 20.4009L12.8595 24.0967L13.1609 23.9717L4.09824 19.5554L4.30032 19.1404L13.9041 23.61L14.0369 23.5426L4.72498 18.2609L4.9162 17.8643L18.3632 25.1811C18.4733 24.9776 18.7039 24.6067 18.8222 24.4073C13.7098 19.6004 8.77635 15.9914 8.77635 15.9914C8.77635 15.9914 13.8499 19.3891 20.1116 22.548C20.3183 22.2898 20.4881 22.0826 20.709 21.8376L9.23732 11.7382L9.54526 11.422L18.8041 19.3132L10.2262 10.7231L10.5474 10.3906L20.178 19.698L11.2133 9.74786L11.5561 9.43874L19.8418 18.3111L12.2793 8.78229L12.6049 8.48614L22.2988 20.2833C22.5494 20.067 22.7576 19.9043 23.0198 19.7034C20.0875 13.3578 16.8852 8.19588 16.8852 8.19588C16.8852 8.19588 20.2936 13.2131 24.8922 18.4674C25.1731 18.3092 25.4579 18.1576 25.7489 18.0149L25.7 17.9834L18.9064 4.4251L19.3103 4.24755L24.9389 15.0322L20.2035 3.85401L20.6258 3.66656L26.0686 15.9037L21.4836 3.31971L21.9175 3.16149L26.2763 14.492L22.8338 2.82384L23.2471 2.67152L27.779 17.1435L27.7703 17.1817L27.7816 17.1772C28.083 17.076 28.3895 16.9869 28.6977 16.903C28.3527 9.95182 27.3244 4.00563 27.3244 4.00563C27.3244 4.00563 28.5977 9.89947 30.8806 16.4712C31.1985 16.4321 31.5184 16.3988 31.841 16.3771L31.8309 16.362H31.8705L31.8478 16.3288L30.6279 1.21315L31.0688 1.19924L32.2473 13.3076L32.0447 1.16953L32.5059 1.15397L32.9686 14.5389L33.4307 1.15373L33.8929 1.16953L33.6898 13.3076L34.8686 1.19947L35.3093 1.21315L34.0893 16.3288L34.0664 16.362H34.073L34.0697 16.3668H34.0897C34.4052 16.3866 34.7181 16.4182 35.0287 16.4554C37.3085 9.89004 38.5797 4.00563 38.5797 4.00563C38.5797 4.00563 37.5545 9.9339 37.2079 16.8723C37.5191 16.9546 37.827 17.0449 38.1305 17.1444L42.6464 2.72269L43.0602 2.87524L39.6172 14.5434L43.9765 3.2129L44.4099 3.37135L39.8247 15.9551L45.2674 3.71773L45.6902 3.90542L40.9546 15.0838L46.5834 4.29895L46.9871 4.4765L40.2175 17.9862L40.229 17.9909C40.508 18.1267 40.781 18.2717 41.0513 18.4217C45.6301 13.1841 49.0189 8.19588 49.0189 8.19588C49.0189 8.19588 45.8385 13.3225 42.9147 19.6372C43.176 19.8343 43.4316 20.038 43.6796 20.25L53.2596 8.58116L53.5864 8.87755L46.0229 18.4064L54.3093 9.534L54.6515 9.84335L45.6864 19.7931L55.3171 10.4857L55.6385 10.8181L47.0606 19.4085L56.3195 11.5177L56.6274 11.8332L45.2957 21.8187L45.3023 21.8256C45.5002 22.046 45.6907 22.2736 45.8777 22.5047C52.0997 19.3585 57.1278 15.9914 57.1278 15.9914C57.1278 15.9914 52.2422 19.5653 47.1564 24.3377C47.2957 24.5702 47.5207 24.9673 47.6492 25.2068L60.9056 17.989L61.0973 18.3863L50.5152 24.3879L61.5215 19.2658L61.7233 19.6808L51.4716 24.6763L51.6682 24.7449L62.0999 20.5257L62.2732 20.9541L52.577 25.0783L52.7583 25.1535L59.2195 22.9996L60.1933 22.3198L60.5165 22.5667L62.6427 21.8579L62.8099 22.2658L60.9704 22.913L63.6281 24.9411L64.4797 25.416C61.0629 11.1322 48.2141 0.512848 32.8834 0.512848C17.2835 0.512848 4.25339 11.5088 1.11595 26.1719C1.15627 26.1523 1.19518 26.1342 1.2355 26.1144L1.62479 25.938L1.86365 25.8265L6.34557 23.3141Z" fill="#E3A82B"/>
<path d="M0.933402 38.9104C0.933402 38.9104 5.72586 37.9534 9.7263 37.9534C20.2667 37.9534 34.8473 43.8885 45.4268 43.8885C53.1876 43.8885 60.757 41.7595 64.8822 38.6555C65.2045 36.8192 65.3733 34.9305 65.3733 33.0017C65.3733 30.3896 65.0633 27.8504 64.4809 25.4163L60.0704 22.9568L54.8955 26.5859L51.4142 25.2303C50.2358 25.8259 42.9649 30.6882 42.9649 30.6882L40.1743 28.6681L37.1802 28.0751L33.1878 25.1685L28.6082 28.3126C28.6082 28.3126 23.4989 31.2793 23.3235 31.2793C23.1471 31.2793 17.1589 26.5321 17.1589 26.5321L14.3999 23.6255C13.93 23.9221 12.0533 24.7832 12.0533 24.7832L11.9569 24.8087L10.1408 24.247L7.93547 23.0773L1.23663 26.1147C1.19631 26.1345 1.1574 26.1529 1.11708 26.1725C0.645737 28.3746 0.395798 30.6589 0.395798 33.0017C0.395798 35.0196 0.58113 36.9944 0.933402 38.9104Z" fill="#65799E"/>
</svg>
